<?xml version="1.0" encoding="utf-8"?>
<!-- Generator: Adobe Illustrator 22.1.0, SVG Export Plug-In . SVG Version: 6.00 Build 0)  -->
<svg version="1.1" id="Camada_1" xmlns="http://www.w3.org/2000/svg" xmlns:xlink="http://www.w3.org/1999/xlink" x="0px" y="0px"
	 viewBox="0 0 800 800" style="enable-background:new 0 0 800 800;" xml:space="preserve">
<style type="text/css">
	.st0{fill:#2694C7;}
	.st1{fill:none;}
	.st2{fill:#FCFCFC;}
</style>
<circle class="st0" cx="400" cy="400" r="319.6"/>
<path class="st0" d="M400,771.5c-50.2,0-98.8-9.8-144.6-29.2c-44.2-18.7-84-45.5-118.1-79.6c-34.1-34.1-60.9-73.9-79.6-118.1
	C38.3,498.8,28.5,450.2,28.5,400s9.8-98.8,29.2-144.6c18.7-44.2,45.5-84,79.6-118.1s73.9-60.9,118.1-79.6
	c45.8-19.4,94.5-29.2,144.6-29.2s98.8,9.8,144.6,29.2c44.2,18.7,84,45.5,118.1,79.6c34.1,34.1,60.9,73.9,79.6,118.1
	c19.4,45.8,29.2,94.5,29.2,144.6s-9.8,98.8-29.2,144.6c-18.7,44.2-45.5,84-79.6,118.1c-34.1,34.1-73.9,60.9-118.1,79.6
	C498.8,761.7,450.2,771.5,400,771.5z M400,36.4C199.5,36.4,36.4,199.5,36.4,400S199.5,763.6,400,763.6S763.6,600.5,763.6,400
	S600.5,36.4,400,36.4z"/>
<g>
	<path class="st1" d="M445.3,231.4c0.1,0.1,0.1,0.1,0.1,0.2C445.4,231.5,445.3,231.4,445.3,231.4z"/>
	<path class="st1" d="M277.8,474.4c0.1,0.3,0.3,0.6,0.5,0.8C278.1,475,277.9,474.7,277.8,474.4z"/>
	<path class="st1" d="M445.5,231.8c0,0,0,0.1,0,0.1C445.6,231.9,445.6,231.8,445.5,231.8z"/>
	<path class="st1" d="M278,231.6c0.1-0.1,0.1-0.2,0.2-0.2C278.1,231.4,278,231.5,278,231.6z"/>
	<path class="st1" d="M277.9,231.9c0,0,0-0.1,0-0.2C277.9,231.8,277.9,231.9,277.9,231.9z"/>
	<path class="st1" d="M444.4,259.4H327.9c-5.3,0-10.2,1.9-14,5c3.8-3.1,8.7-5,14-5L444.4,259.4c0.7,0,1.2-0.5,1.2-1.2v0
		C445.6,258.9,445.1,259.4,444.4,259.4z"/>
	<path class="st1" d="M327.9,350.4c-4.6,0-8.8-1.4-12.3-3.8C319.1,349,323.4,350.4,327.9,350.4L327.9,350.4z"/>
	<path class="st2" d="M305.9,281.5v46.8c0,7.6,3.9,14.3,9.7,18.3c-5.9-4-9.7-10.7-9.7-18.3L305.9,281.5c0-6.8,3.1-13,8-17
		C309,268.5,305.9,274.6,305.9,281.5z"/>
	<path class="st2" d="M444.4,231c0.3,0,0.6,0.1,0.9,0.4C445.1,231.2,444.8,231,444.4,231L279,231c-0.3,0-0.6,0.1-0.9,0.4
		c0.2-0.2,0.5-0.4,0.9-0.4H444.4z"/>
	<path class="st2" d="M277.8,232.2L277.8,232.2c0-0.1,0-0.2,0.1-0.3C277.8,232,277.8,232.1,277.8,232.2z"/>
	<path class="st2" d="M277.8,474.2c0,0.1,0,0.2,0,0.2C277.8,474.3,277.8,474.2,277.8,474.2L277.8,474.2z"/>
	<path class="st2" d="M383.1,378.8h-55.1c-12.2,0-22.1,9.9-22.1,22.1v73.3c0,0.7-0.5,1.2-1.2,1.2H279c-0.2,0-0.5-0.1-0.6-0.2
		c0.2,0.1,0.4,0.2,0.6,0.2h25.6c0.7,0,1.2-0.5,1.2-1.2v-73.3c0-12.2,9.9-22.1,22.1-22.1L383.1,378.8c2.5,0,4.8-0.6,6.9-1.8
		c0,0,0,0,0,0C387.9,378.1,385.6,378.8,383.1,378.8z"/>
	<path class="st2" d="M445.6,232.2c0-0.1,0-0.2-0.1-0.3C445.6,232,445.6,232.1,445.6,232.2L445.6,232.2z"/>
	<path class="st2" d="M277.9,231.8c0-0.1,0.1-0.1,0.1-0.1C278,231.7,277.9,231.7,277.9,231.8z"/>
	<path class="st2" d="M445.4,231.6c0,0.1,0.1,0.1,0.1,0.2C445.5,231.7,445.5,231.6,445.4,231.6z"/>
	<path class="st2" d="M557,329.5H432c-14.1,0.1-26.3,8.7-31.7,20.8c-1,2.2-1.7,4.5-2.2,6.8c-0.5,2.4-0.8,4.8-0.8,7.4
		c0,5.3-3,10-7.3,12.4c0,0,0,0,0,0c-2,1.1-4.4,1.8-6.9,1.8h-55.1c-12.2,0-22.1,9.9-22.1,22.1v73.3c0,0.7-0.5,1.2-1.2,1.2H279
		c-0.2,0-0.5-0.1-0.6-0.2c-0.3-0.2-0.5-0.5-0.5-0.8c0-0.1,0-0.1,0-0.2v0V232.2v0c0-0.1,0-0.2,0.1-0.3c0,0,0-0.1,0-0.2
		c0-0.1,0.1-0.1,0.1-0.1c0.1-0.1,0.1-0.2,0.2-0.2c0.2-0.2,0.5-0.4,0.9-0.4h165.4c0.3,0,0.6,0.1,0.9,0.4c0.1,0.1,0.1,0.1,0.1,0.2
		c0,0.1,0.1,0.1,0.1,0.2c0,0,0,0.1,0,0.1c0,0.1,0.1,0.2,0.1,0.3v0v26v0c0,0.7-0.5,1.2-1.2,1.2H327.9c-5.3,0-10.2,1.9-14,5
		c-4.9,4.1-8,10.2-8,17v46.8c0,7.6,3.9,14.3,9.7,18.3c3.5,2.4,7.8,3.8,12.3,3.8h54.4c2.3-8.7,7.9-16.1,15.3-20.8h-69.7
		c-0.7,0-1.2-0.5-1.2-1.2v-46.8c0-0.7,0.6-1.2,1.2-1.2h116.5c12.2,0,22.1-9.9,22.1-22.1v-26c0-12.2-9.9-22.1-22.1-22.1H279
		c-12.2,0-22.1,9.9-22.1,22.1v241.9c0,12.2,9.9,22.1,22.1,22.1h25.6c12.2,0,22.1-9.9,22.1-22.1v-73.3c0-0.7,0.6-1.2,1.2-1.2h55.1
		c8.4,0,16.2-3,22.2-8c0,0,0,0,0,0c7.8-6.4,12.8-16.2,12.8-27.1c0-7.8,6.3-14.1,14-14.2H557c0.7,0,1.2,0.5,1.2,1.2v26
		c0,0.7-0.5,1.2-1.2,1.2H440.5c-10.3,0-18.9,7.1-21.3,16.6c-0.4,1.8-0.7,3.6-0.7,5.5v46.8c0,12.2,9.9,22.1,22.1,22.1h90.1
		c0.7,0,1.2,0.6,1.2,1.2v26c0,0.7-0.5,1.2-1.2,1.2h-90.1c-12.2,0-22.1,9.9-22.1,22.1v73.3c0,0.7-0.5,1.2-1.2,1.2h-25.6
		c-0.7,0-1.2-0.5-1.2-1.2V417.2h-20.8v176.3c0,12.2,9.9,22.1,22.1,22.1h25.6c12.2,0,22.1-9.9,22.1-22.1v-73.3c0-0.7,0.6-1.2,1.2-1.2
		h90.1c12.2,0,22.1-9.9,22.1-22.1v-26c0-12.2-9.9-22.1-22.1-22.1h-90.1c-0.7,0-1.2-0.5-1.2-1.2v-46.8c0-0.7,0.6-1.2,1.2-1.2H557
		c12.2,0,22.1-9.9,22.1-22.1v-26C579.1,339.4,569.2,329.5,557,329.5z"/>
	<path class="st2" d="M432.2,350.4h4.8v0L432.2,350.4C432.2,350.4,432.2,350.4,432.2,350.4z"/>
	<path class="st2" d="M390,377C390,377,390,377,390,377c4.4-2.4,7.3-7.1,7.3-12.4c0-5.1,1.1-9.9,3-14.2h0c-1.9,4.3-3,9.2-3,14.2
		C397.3,369.9,394.3,374.6,390,377z"/>
	<path class="st2" d="M432.3,350.4C432.3,350.4,432.3,350.4,432.3,350.4l4.6,0v0H432.3z"/>
</g>
</svg>
