<?xml version="1.0" encoding="utf-8"?>
<!-- Generator: Adobe Illustrator 22.1.0, SVG Export Plug-In . SVG Version: 6.00 Build 0)  -->
<svg version="1.1" id="Camada_1" xmlns="http://www.w3.org/2000/svg" xmlns:xlink="http://www.w3.org/1999/xlink" x="0px" y="0px"
	 viewBox="0 0 800 800" style="enable-background:new 0 0 800 800;" xml:space="preserve">
<style type="text/css">
	.st0{fill:#FFFFFF;}
</style>
<g>
	<path class="st0" d="M460.9,127.5c0.1,0.1,0.1,0.2,0.2,0.3C461,127.7,461,127.6,460.9,127.5z"/>
	<path class="st0" d="M197.6,509.6c0.1,0.5,0.4,1,0.8,1.2C198,510.6,197.7,510.1,197.6,509.6z"/>
	<path class="st0" d="M461.3,128.1c0,0.1,0,0.1,0,0.2C461.3,128.3,461.3,128.2,461.3,128.1z"/>
	<path class="st0" d="M197.9,127.9c0.1-0.1,0.1-0.3,0.3-0.4C198,127.6,198,127.8,197.9,127.9z"/>
	<path class="st0" d="M197.7,128.4c0-0.1,0-0.2,0-0.2C197.7,128.2,197.7,128.3,197.7,128.4z"/>
	<path class="st0" d="M459.5,171.6H276.4c-8.4,0-16.1,3-22.1,7.9c6-5,13.7-7.9,22.1-7.9L459.5,171.6c1.1,0,1.9-0.9,1.9-1.9v0
		C461.4,170.7,460.6,171.6,459.5,171.6z"/>
	<path class="st0" d="M276.4,314.6c-7.2,0-13.8-2.2-19.4-5.9C262.5,312.4,269.2,314.6,276.4,314.6L276.4,314.6z"/>
	<path class="st0" d="M241.7,206.3v73.6c0,12,6.1,22.5,15.3,28.8c-9.2-6.2-15.3-16.8-15.3-28.8L241.7,206.3
		c0-10.8,4.9-20.4,12.6-26.8C246.6,185.9,241.7,195.5,241.7,206.3z"/>
	<path class="st0" d="M459.5,127c0.5,0,1,0.2,1.4,0.6C460.5,127.2,460.1,126.9,459.5,127l-260,0c-0.5,0-1,0.2-1.4,0.6
		c0.3-0.3,0.8-0.6,1.4-0.6H459.5z"/>
	<path class="st0" d="M197.6,128.9L197.6,128.9c0-0.2,0.1-0.3,0.1-0.5C197.6,128.5,197.6,128.7,197.6,128.9z"/>
	<path class="st0" d="M197.6,509.2c0,0.1,0,0.2,0.1,0.4C197.6,509.5,197.6,509.4,197.6,509.2L197.6,509.2z"/>
	<path class="st0" d="M363.1,359.3h-86.7c-19.1,0-34.7,15.6-34.7,34.7v115.3c0,1.1-0.9,1.9-1.9,1.9h-40.3c-0.4,0-0.7-0.1-1-0.3
		c0.3,0.2,0.6,0.3,1,0.3h40.3c1.1,0,1.9-0.9,1.9-1.9V394c0-19.1,15.6-34.7,34.7-34.7L363.1,359.3c3.9,0,7.6-1,10.8-2.8c0,0,0,0,0,0
		C370.7,358.2,367,359.3,363.1,359.3z"/>
	<path class="st0" d="M461.4,128.9c0-0.2-0.1-0.4-0.1-0.5C461.4,128.5,461.4,128.7,461.4,128.9L461.4,128.9z"/>
	<path class="st0" d="M197.7,128.1c0-0.1,0.1-0.2,0.2-0.2C197.8,128,197.8,128,197.7,128.1z"/>
	<path class="st0" d="M461.1,127.8c0.1,0.1,0.2,0.2,0.2,0.3C461.2,128,461.2,127.9,461.1,127.8z"/>
	<path class="st0" d="M636.5,281.8H440c-22.2,0.2-41.3,13.6-49.8,32.8c-1.5,3.4-2.7,7-3.5,10.8c-0.8,3.7-1.2,7.6-1.2,11.6
		c0,8.4-4.7,15.7-11.5,19.6c0,0,0,0,0,0c-3.2,1.8-6.9,2.8-10.8,2.8h-86.7c-19.1,0-34.7,15.6-34.7,34.7v115.3c0,1.1-0.9,1.9-1.9,1.9
		h-40.3c-0.4,0-0.7-0.1-1-0.3c-0.4-0.3-0.7-0.7-0.8-1.2c0-0.1-0.1-0.2-0.1-0.4v0V128.9v0c0-0.2,0.1-0.3,0.1-0.5c0-0.1,0-0.2,0-0.2
		c0-0.1,0.1-0.2,0.2-0.2c0.1-0.1,0.1-0.3,0.3-0.4c0.3-0.3,0.8-0.6,1.4-0.6h260c0.5,0,1,0.2,1.4,0.6c0.1,0.1,0.1,0.2,0.2,0.3
		c0.1,0.1,0.2,0.2,0.2,0.3c0,0.1,0,0.1,0,0.2c0.1,0.2,0.1,0.3,0.1,0.5v0v40.8v0c0,1-0.9,1.9-1.9,1.9H276.4c-8.4,0-16.1,3-22.1,7.9
		c-7.7,6.4-12.6,16-12.6,26.8v73.6c0,12,6.1,22.5,15.3,28.8c5.5,3.7,12.2,5.9,19.4,5.9h85.5c3.7-13.7,12.4-25.3,24.1-32.8H276.4
		c-1,0-1.9-0.9-1.9-1.9v-73.6c0-1.1,0.9-1.9,1.9-1.9h183.1c19.1,0,34.7-15.6,34.7-34.7v-40.8c0-19.1-15.6-34.7-34.7-34.7h-260
		c-19.1,0-34.7,15.6-34.7,34.7v380.4c0,19.1,15.6,34.7,34.7,34.7h40.3c19.1,0,34.7-15.6,34.7-34.7V393.9c0-1,0.9-1.9,1.9-1.9h86.7
		c13.2,0,25.4-4.7,34.9-12.5c0,0,0,0,0,0c12.3-10.1,20.2-25.5,20.2-42.6c0-12.2,9.9-22.2,22.1-22.3h196.3c1.1,0,1.9,0.9,1.9,1.9
		v40.8c0,1.1-0.9,1.9-1.9,1.9H453.4c-16.1,0-29.7,11.1-33.6,26.1c-0.7,2.8-1.1,5.6-1.1,8.6v73.6c0,19.1,15.6,34.7,34.7,34.7H595
		c1.1,0,1.9,0.9,1.9,1.9V545c0,1.1-0.9,1.9-1.9,1.9H453.4c-19.1,0-34.7,15.6-34.7,34.7v115.3c0,1.1-0.9,1.9-1.9,1.9h-40.3
		c-1.1,0-1.9-0.9-1.9-1.9V419.6h-32.8v277.3c0,19.1,15.6,34.7,34.7,34.7h40.3c19.1,0,34.7-15.6,34.7-34.7V581.6c0-1,0.9-1.9,1.9-1.9
		H595c19.1,0,34.7-15.6,34.7-34.7v-40.8c0-19.1-15.6-34.7-34.7-34.7H453.4c-1,0-1.9-0.9-1.9-1.9v-73.6c0-1,0.9-1.9,1.9-1.9h183.1
		c19.1,0,34.7-15.6,34.7-34.7v-40.8C671.2,297.4,655.7,281.8,636.5,281.8z"/>
	<path class="st0" d="M440.3,314.6h7.5v0h-7.4C440.4,314.6,440.3,314.6,440.3,314.6z"/>
	<path class="st0" d="M373.9,356.5C373.9,356.5,373.9,356.5,373.9,356.5c6.9-3.8,11.5-11.1,11.5-19.5c0-7.9,1.7-15.5,4.7-22.3h0
		c-3,6.8-4.7,14.4-4.7,22.3C385.4,345.3,380.8,352.6,373.9,356.5z"/>
	<path class="st0" d="M440.6,314.6c-0.1,0-0.1,0-0.2,0h7.4v0H440.6z"/>
</g>
</svg>
